<?xml version="1.0" encoding="utf-8"?>
<svg version="1.1" xmlns:xlink="http://www.w3.org/1999/xlink" width="18px" height="10px" xmlns="http://www.w3.org/2000/svg">
  <g transform="matrix(1 0 0 1 -1682 -9365 )">
    <path d="M 2.66462882096076 0.485294117646845  C 2.07510917030552 -0.0661764705882888  1.11615720524038 -0.0661764705882888  0.51877729257638 0.492647058823422  C -0.0707423580783785 1.04411764705901  -0.0707423580783785 1.94852941176487  0.51877729257638 2.5  L 8.04104803493438 9.51470588235316  C 8.6148471615721 10.0514705882351  9.54235807860267 10.0661764705883  10.1318777292574 9.55882352941171  L 17.5441048034932 2.64705882352928  C 17.8427947598252 2.36764705882342  17.9921397379912 2.00735294117658  17.9921397379912 1.63970588235316  C 17.9921397379912 1.27941176470586  17.8427947598252 0.911764705882433  17.551965065502 0.639705882353155  C 16.9624454148472 0.0882352941175668  16.0034934497816 0.0808823529409892  15.4061135371181 0.639705882353155  L 9.03930131004381 6.50735294117658  L 2.66462882096076 0.485294117646845  Z " fill-rule="nonzero" fill="#d7d7d7" stroke="none" transform="matrix(1 0 0 1 1682 9365 )" />
  </g>
</svg>