<?xml version="1.0" encoding="utf-8"?>
<svg version="1.1" xmlns:xlink="http://www.w3.org/1999/xlink" width="40px" height="20px" xmlns="http://www.w3.org/2000/svg">
  <g transform="matrix(1 0 0 1 -182 16 )">
    <path d="M 39.2578125 16.2152777777778  C 39.7526041666667 16.6550925925926  40 17.1759259259259  40 17.7777777777778  C 40 18.3796296296296  39.7526041666667 18.900462962963  39.2578125 19.3402777777778  C 38.7630208333333 19.7800925925926  38.1770833333333 20  37.5 20  L 2.5 20  C 1.82291666666667 20  1.23697916666667 19.7800925925926  0.7421875 19.3402777777778  C 0.247395833333333 18.900462962963  0 18.3796296296296  0 17.7777777777778  C 0 17.1759259259259  0.247395833333333 16.6550925925926  0.7421875 16.2152777777778  L 18.2421875 0.659722222222223  C 18.7369791666667 0.219907407407405  19.3229166666667 0  20 0  C 20.6770833333333 0  21.2630208333333 0.219907407407405  21.7578125 0.659722222222223  L 39.2578125 16.2152777777778  Z " fill-rule="nonzero" fill="#231e40" stroke="none" transform="matrix(1 0 0 1 182 -16 )" />
  </g>
</svg>