<?xml version="1.0" encoding="utf-8"?>
<svg version="1.1" xmlns:xlink="http://www.w3.org/1999/xlink" width="18px" height="18px" xmlns="http://www.w3.org/2000/svg">
  <g transform="matrix(1 0 0 1 -40 -381 )">
    <path d="M 1.14012631578947 9  C 1.14012631578947 13.3412210526316  4.65877894736842 16.8598736842105  9 16.8598736842105  C 13.3412210526316 16.8598736842105  16.8598736842105 13.3412210526316  16.8598736842105 9  C 16.8598736842105 4.65877894736842  13.3412210526316 1.14012631578947  9 1.14012631578947  C 4.65877894736842 1.14012631578947  1.14012631578947 4.65877894736842  1.14012631578947 9  Z M 17.9815578947368 9  C 17.9815578947368 13.9596631578947  13.9616842105263 17.9815578947368  9 17.9815578947368  C 4.03831578947369 17.9815578947368  0.0184421052631578 13.9596631578947  0.0184421052631578 9  C 0.0184421052631578 4.04033684210526  4.03831578947369 0.0184421052631578  9 0.0184421052631578  C 13.9616842105263 0.0184421052631578  17.9815578947368 4.04033684210526  17.9815578947368 9  Z " fill-rule="nonzero" fill="#ffffff" stroke="none" transform="matrix(1 0 0 1 40 381 )" />
  </g>
</svg>