<?xml version="1.0" encoding="utf-8"?>
<svg version="1.1" xmlns:xlink="http://www.w3.org/1999/xlink" width="24px" height="24px" xmlns="http://www.w3.org/2000/svg">
  <g transform="matrix(1 0 0 1 -50 -562 )">
    <path d="M 1.52016842105263 12  C 1.52016842105263 17.7882947368421  6.21170526315789 22.4798315789474  12 22.4798315789474  C 17.7882947368421 22.4798315789474  22.4798315789474 17.7882947368421  22.4798315789474 12  C 22.4798315789474 6.21170526315789  17.7882947368421 1.52016842105263  12 1.52016842105263  C 6.21170526315789 1.52016842105263  1.52016842105263 6.21170526315789  1.52016842105263 12  Z M 23.9754105263158 12  C 23.9754105263158 18.6128842105263  18.6155789473684 23.9754105263158  12 23.9754105263158  C 5.38442105263158 23.9754105263158  0.0245894736842104 18.6128842105263  0.0245894736842104 12  C 0.0245894736842104 5.38711578947368  5.38442105263158 0.0245894736842104  12 0.0245894736842104  C 18.6155789473684 0.0245894736842104  23.9754105263158 5.38711578947368  23.9754105263158 12  Z " fill-rule="nonzero" fill="#ffffff" stroke="none" transform="matrix(1 0 0 1 50 562 )" />
  </g>
</svg>