<?xml version="1.0" encoding="utf-8"?>
<svg version="1.1" xmlns:xlink="http://www.w3.org/1999/xlink" width="40px" height="26px" xmlns="http://www.w3.org/2000/svg">
  <g transform="matrix(1 0 0 1 -20 -534 )">
    <path d="M 28.0277777777778 0.51587301587311  C 27.3472222222222 -0.154761904761905  26.2083333333333 -0.167658730158824  25.5 0.477182539682634  C 24.7916666666667 1.12202380952381  24.7916666666667 2.19246031746022  25.4861111111111 2.85019841269832  L 33.9305555555556 11  L 1.79166666666667 11  C 0.805555555555581 10.704365079365  0 11.452380952381  0 12.3809523809524  C 0 13.3095238095238  0.805555555555581 14.0575396825398  1.79166666666667 14  L 33.9166666666667 14  L 25.4722222222222 21.9117063492064  C 24.7777777777778 22.5694444444445  24.7916666666667 23.6269841269843  25.4861111111111 24.2847222222224  C 26.1944444444444 24.9295634920636  27.3194444444444 24.9295634920636  28.0277777777778 24.2718253968255  L 39.4722222222222 13.5674603174602  C 39.625 13.4126984126983  39.75 13.2450396825398  39.8472222222222 13.0386904761905  C 39.9444444444444 12.8323412698412  39.9861111111111 12.6130952380952  39.9861111111111 12.3938492063493  C 39.9861111111111 11.9553571428571  39.8055555555556 11.5426587301588  39.4722222222222 11.2202380952381  L 28.0277777777778 0.51587301587311  Z " fill-rule="nonzero" fill="#ffffff" stroke="none" transform="matrix(1 0 0 1 20 534 )" />
  </g>
</svg>