<?xml version="1.0" encoding="utf-8"?>
<svg version="1.1" xmlns:xlink="http://www.w3.org/1999/xlink" width="40px" height="42px" xmlns="http://www.w3.org/2000/svg">
  <g transform="matrix(1 0 0 1 -902 -7979 )">
    <path d="M 39.9232613908874 18.1294964028775  C 39.9040767386092 8.11510791366891  30.9736211031174 0  19.9520383693046 0  C 8.93045563549155 0  0 8.11510791366891  0 18.1294964028775  C 0 25.1330935251804  4.37410071942456 31.2086330935263  10.7721822541965 34.2302158273392  C 10.273381294964 37.0143884892086  8.75779376498789 39.3021582733822  7.55875299760191 40.7589928057564  C 7.33812949640287 41.0287769784172  7.57793764988007 41.460431654677  7.90407673860924 41.4388489208641  C 9.00719424460446 41.3525179856124  11.0599520383694 40.9640287769785  12.7961630695445 40.0683453237416  C 14.8585131894485 39  16.6618705035971 36.8201438848923  17.2374100719426 36.0863309352517  C 18.1294964028778 36.1942446043176  19.0407673860912 36.2589928057564  19.9712230215828 36.2589928057564  C 30.9928057553955 36.2589928057564  39.9232613908874 28.1438848920861  39.9232613908874 18.1294964028775  Z " fill-rule="nonzero" fill="#5b3e9b" stroke="none" transform="matrix(1 0 0 1 902 7979 )" />
  </g>
</svg>