<?xml version="1.0" encoding="utf-8"?>
<svg version="1.1" xmlns:xlink="http://www.w3.org/1999/xlink" width="48px" height="45px" xmlns="http://www.w3.org/2000/svg">
  <g transform="matrix(1 0 0 1 -1350 -9348 )">
    <path d="M 47.9079136690649 19.4244604316545  C 47.8848920863311 8.69475847893097  37.1683453237409 0  23.9424460431655 0  C 10.7165467625899 0  0 8.69475847893097  0 19.4244604316545  C 0 26.9283144912647  5.24892086330947 33.4378211716353  12.9266187050358 36.6752312435777  C 12.3280575539568 39.6582733812949  10.5093525179855 42.1094552929096  9.0705035971223 43.670349434739  C 8.80575539568344 43.959403905447  9.09352517985608 44.4218910585825  9.48489208633109 44.3987667009258  C 10.8086330935253 44.306269270299  13.2719424460432 43.8900308324769  15.3553956834534 42.9303699897231  C 17.8302158273382 41.7857142857143  19.9942446043166 39.4501541623846  20.6848920863311 38.6639260020554  C 21.7553956834534 38.7795477903403  22.8489208633095 38.8489208633104  23.9654676258993 38.8489208633104  C 37.1913669064746 38.8489208633104  47.9079136690649 30.154162384378  47.9079136690649 19.4244604316545  Z " fill-rule="nonzero" fill="#5b3e9b" stroke="none" transform="matrix(1 0 0 1 1350 9348 )" />
  </g>
</svg>